[Header]
FileType HTR
DataType HTRS
FileVersion 1
NumSegments 22
NumFrames 4
DataFrameRate 24
EulerRotationOrder ZYX
CalibrationUnits mm
RotationUnits Degrees
GlobalAxisofGravity Y
BoneLengthAxis Y
ScaleFactor 1.0
[SegmentNames&Hierarchy]
reference	GLOBAL
Hips	reference
Spine	Hips
Spine1	Spine
Neck	Spine1
Head	Neck
LeftShoulder	Spine1
LeftArm	LeftShoulder
LeftForeArm	LeftArm
LeftHand	LeftForeArm
RightShoulder	Spine1
RightArm	RightShoulder
RightForeArm	RightArm
RightHand	RightForeArm
LeftUpLeg	Hips
LeftLeg	LeftUpLeg
LeftFoot	LeftLeg
LeftToeBase	LeftFoot
RightUpLeg	Hips
RightLeg	RightUpLeg
RightFoot	RightLeg
RightToeBase	RightFoot
[BasePosition]
reference	0	0	0	0	0	0	1
Hips	0	0	0	0	0	0	1
Spine	0	0	0	0	-0	90	1
Spine1	0	0	0	0	0	0	1
Neck	0	0	0	-7.352327771	-7.352327771	90	1
Head	0	0	0	0	-0	90	1
LeftShoulder	0	0	0	0	0	0	1
LeftArm	0	0	0	0	0	0	1
LeftForeArm	0	0	0	0	0	0	1
LeftHand	0	0	0	0	0	0	1
RightShoulder	0	0	0	0	-0	180	1
RightArm	0	0	0	0	-0	180	1
RightForeArm	0	0	0	0	-0	180	1
RightHand	0	0	0	0	-0	180	1
LeftUpLeg	0	0	0	0	-0	-90	1
LeftLeg	0	0	0	0	-0	-90	1
LeftFoot	0	0	0	66.57146043	-66.57146043	-90	1
LeftToeBase	0	0	0	0	-90	0	1
RightUpLeg	0	0	0	0	-0	-90	1
RightLeg	0	0	0	0	-0	-90	1
RightFoot	0	0	0	66.57146043	-66.57146043	-90	1
RightToeBase	0	0	0	0	-90	0	1
[reference]
28	0	0	0	0	-0	0	1.0
29	0	0	0	0	-0	0	1.0
30	0	0	0	0	-0	0	1.0
31	0	0	0	0	-0	0	1.0
[Hips]
28	6.215132713	8.290218353	0.3260758817	8.874191284	-67.23868561	-5.249643326	1.0
29	6.097445488	8.296888351	0.3757381141	6.23646307	-65.95578003	-1.983225107	1.0
30	5.949640274	8.254595757	0.4289391935	4.451414108	-65.1166687	0.3569404781	1.0
31	5.750100136	8.208918571	0.5108219981	3.971853733	-65.64025116	0.4232033491	1.0
[Spine]
28	0	0.7457100153	0	-5.76702404	2.115447521	-89.35526276	1.0
29	0	0.7457100153	0	-5.408535957	1.254274726	-90.82566071	1.0
30	0	0.7457100153	0	-5.498355865	0.8900980949	-91.76544189	1.0
31	0	0.7457100153	0	-5.439770222	1.304724097	-91.26053619	1.0
[Spine1]
28	0	2.140589952	0	5.747986794	0.6337605119	1.346103072	1.0
29	0	2.140589952	0	6.176237106	0.3370707333	1.74833858	1.0
30	0	2.140589952	0	6.779072762	0.228654772	1.59453094	1.0
31	0	2.140589952	0	6.95508194	0.4063120484	0.9481791258	1.0
[Neck]
28	0	2.32246995	0	-17.82098579	6.148997784	-90.63490295	1.0
29	0	2.32246995	0	-19.43149567	6.221777439	-91.04621887	1.0
30	0	2.32246995	0	-20.56207657	6.212598801	-91.32565308	1.0
31	0	2.32246995	0	-19.79154968	6.10474968	-91.83499146	1.0
[Head]
28	0	1.409579992	0.1818799973	-1.665880442	-0.9010909796	-92.64369965	1.0
29	0	1.409579992	0.1818799973	-2.512597322	-0.766392231	-92.86031342	1.0
30	0	1.409579992	0.1818799973	-3.100346327	-0.7521543503	-92.80072784	1.0
31	0	1.409579992	0.1818799973	-3.290573359	-0.8669595122	-92.34346008	1.0
[LeftShoulder]
28	0.3668199778	1.946700096	-0.02662999928	-10.61715889	-13.27092552	2.649942398	1.0
29	0.3668199778	1.946700096	-0.02662999928	-10.79633236	-13.45181274	2.141778708	1.0
30	0.3668199778	1.946700096	-0.02662999928	-10.91606998	-13.52407837	1.682215214	1.0
31	0.3668199778	1.946700096	-0.02662999928	-11.11952496	-13.4933176	0.9164367318	1.0
[LeftArm]
28	1.140689969	0	0	21.97363663	28.90669632	-73.78708649	1.0
29	1.140689969	0	0	20.09249878	29.22152328	-71.77046967	1.0
30	1.140689969	0	0	20.37086296	28.16553688	-70.27670288	1.0
31	1.140689969	0	0	21.48531914	26.83665848	-69.42635345	1.0
[LeftForeArm]
28	2.749800205	0	0	-3.648401737	-6.451395035	-9.181190491	1.0
29	2.749800205	0	0	-3.92216301	-6.319682121	-9.193933487	1.0
30	2.749800205	0	0	-6.078965664	-5.34335041	-8.068058014	1.0
31	2.749800205	0	0	-7.397806168	-4.190139771	-6.794198036	1.0
[LeftHand]
28	2.295179844	0	0	-3.989802122	-1.825658798	-11.0853405	1.0
29	2.295179844	0	0	-4.239909649	-2.055789232	-10.61041641	1.0
30	2.295179844	0	0	-6.207305908	-3.350978374	-8.489759445	1.0
31	2.295179844	0	0	-7.554620266	-2.88689065	-3.651662111	1.0
[RightShoulder]
28	-0.3601199985	1.946700096	-0.02662999928	-7.977638245	2.936387062	173.3213806	1.0
29	-0.3601199985	1.946700096	-0.02662999928	-8.130315781	2.977390051	173.4206848	1.0
30	-0.3601199985	1.946700096	-0.02662999928	-8.138931274	2.903684855	173.5460052	1.0
31	-0.3601199985	1.946700096	-0.02662999928	-7.852005482	3.065956116	174.2055664	1.0
[RightArm]
28	-1.140689969	0	0	72.10547638	11.77280235	-96.29970551	1.0
29	-1.140689969	0	0	72.02978516	12.77517605	-96.20891571	1.0
30	-1.140689969	0	0	71.59918213	13.19390202	-94.97116089	1.0
31	-1.140689969	0	0	72.13807678	12.64150238	-93.83383179	1.0
[RightForeArm]
28	-2.749800205	0	0	9.404289246	46.67022705	177.214798	1.0
29	-2.749800205	0	0	8.829023361	48.45567322	175.6416779	1.0
30	-2.749800205	0	0	7.870769978	46.73274231	174.3400269	1.0
31	-2.749800205	0	0	6.104157925	42.57247162	172.6207886	1.0
[RightHand]
28	-2.295179844	0	0	9.766435623	15.63515472	173.8771973	1.0
29	-2.295179844	0	0	9.866425514	15.93530655	173.3981018	1.0
30	-2.295179844	0	0	9.246209145	16.08539009	172.4382019	1.0
31	-2.295179844	0	0	7.75852108	15.72204399	171.1983948	1.0
[LeftUpLeg]
28	0.9094099998	0	0	6.984591007	-2.937602282	87.37935638	1.0
29	0.9094099998	0	0	6.082404613	-4.746515274	86.69404602	1.0
30	0.9094099998	0	0	5.560647011	-2.537553072	86.33534241	1.0
31	0.9094099998	0	0	7.114670753	-0.5125784278	86.36729431	1.0
[LeftLeg]
28	0	-4.498080254	0	-0.07656514645	-5.165302753	88.37830353	1.0
29	0	-4.498080254	0	3.066530228	-8.189300537	86.6210556	1.0
30	0	-4.498080254	0	6.309487343	-12.0271492	85.38231659	1.0
31	0	-4.498080254	0	7.263306618	-13.00383377	85.06803894	1.0
[LeftFoot]
28	0	-3.729400158	0	-98.63076782	112.6406174	-41.99634171	1.0
29	0	-3.729400158	0	-94.5331955	114.7076721	-33.962677	1.0
30	0	-3.729400158	0	-94.4608078	115.188652	-31.10202217	1.0
31	0	-3.729400158	0	-95.05906677	115.2756958	-30.38743591	1.0
[LeftToeBase]
28	0	-0.5911099911	1.364109993	0	0	0	1.0
29	0	-0.5911099911	1.364109993	0	0	0	1.0
30	0	-0.5911099911	1.364109993	0	0	0	1.0
31	0	-0.5911099911	1.364109993	0	0	0	1.0
[RightUpLeg]
28	-0.9094099998	0	0	-24.5624733	-12.14682579	98.0324173	1.0
29	-0.9094099998	0	0	-23.8862915	-11.45495224	96.67737579	1.0
30	-0.9094099998	0	0	-23.20214081	-11.12377357	95.99026489	1.0
31	-0.9094099998	0	0	-23.34577179	-11.43004704	96.45384979	1.0
[RightLeg]
28	0	-4.498080254	0	30.97411537	-5.457458496	81.29931641	1.0
29	0	-4.498080254	0	17.20457649	-3.655231953	86.03903961	1.0
30	0	-4.498080254	0	7.738586426	-6.233225822	87.05769348	1.0
31	0	-4.498080254	0	8.434997559	-6.223557472	87.6493988	1.0
[RightFoot]
28	0	-3.729400158	0	51.66111755	62.83363342	101.325737	1.0
29	0	-3.729400158	0	56.28490448	66.30290985	102.3713913	1.0
30	0	-3.729400158	0	72.64613342	61.90864182	113.8577957	1.0
31	0	-3.729400158	0	75.51708984	64.4597168	115.4510574	1.0
[RightToeBase]
28	0	-0.5911099911	1.364109993	0	0	0	1.0
29	0	-0.5911099911	1.364109993	0	0	0	1.0
30	0	-0.5911099911	1.364109993	0	0	0	1.0
31	0	-0.5911099911	1.364109993	0	0	0	1.0
[EndOfFile]
